# Blender v2.78 (sub 0) OBJ File: 'track.blend'
# www.blender.org
v -229.843353 -0.379823 25.864697
v 228.592499 -0.379823 0.910636
v -230.477020 -0.379823 14.223260
v 227.958832 -0.379823 -10.730801
v -229.843353 -0.379823 25.864697
v -230.477020 -0.379823 14.223260
v -279.009338 -0.379822 30.011230
v -279.643005 -0.379822 18.369793
v -284.905151 -0.379822 30.960016
v -286.384247 -0.379822 19.395542
v -291.405853 -0.379822 32.428947
v -294.100189 -0.379822 21.085871
v -300.999298 -0.379822 34.663525
v -304.647034 -0.379822 23.590183
v -317.014282 -0.379823 39.462460
v -321.409393 -0.379823 28.663937
v -329.806274 -0.379823 44.294792
v -334.681305 -0.379823 33.704292
v -345.441284 -0.379823 50.827866
v -351.033783 -0.379823 40.598068
v -360.304077 -0.379823 58.129242
v -366.578857 -0.379823 48.303173
v -378.864716 -0.379823 68.989197
v -385.139496 -0.379823 59.163128
v -399.794830 -0.379823 83.995689
v -406.069611 -0.379823 74.169609
v -417.163025 -0.379823 98.192513
v -425.032928 -0.379823 89.590843
v -440.680817 -0.379823 121.709534
v -449.298950 -0.379823 113.857628
v -456.821777 -0.379823 145.478027
v -467.278046 -0.379823 140.321381
v -466.110321 -0.379823 164.457489
v -477.419037 -0.379823 161.622437
v -471.385193 -0.379823 184.801788
v -483.043671 -0.379823 184.875946
v -472.854706 -0.379823 195.228363
v -484.417389 -0.379823 196.722137
v -472.601929 -0.379823 222.949951
v -483.532867 -0.379823 227.004547
v -470.233032 -0.379823 242.863007
v -479.646484 -0.379823 249.741516
v -465.207184 -0.379823 260.505219
v -474.026917 -0.379823 268.130066
v -454.401031 -0.379823 288.486603
v -462.723389 -0.379823 296.651428
v -355.316498 -0.379823 488.293396
v -363.638885 -0.379823 496.458130
v -345.572296 -0.379823 507.038239
v -352.228638 -0.379823 516.610046
v -329.778259 -0.379823 525.279297
v -334.585052 -0.379823 535.901001
v -313.576294 -0.379822 536.570129
v -316.667053 -0.379822 547.811707
v -301.166840 -0.379822 543.193665
v -301.780487 -0.379822 554.836182
v -287.616516 -0.379822 545.916687
v -287.352417 -0.379822 557.572388
v -265.438507 -0.379822 545.234314
v -265.174408 -0.379822 556.889954
v -264.201111 -0.379821 544.891724
v -260.270233 -0.379821 555.867737
v -257.673035 -0.379821 542.775208
v -252.467865 -0.379821 553.207458
v -249.465607 -0.379821 539.751099
v -242.932892 -0.379821 549.407593
v -241.204895 -0.379821 534.485474
v -234.133636 -0.379821 543.754822
v -231.456573 -0.379821 528.090820
v -222.727509 -0.379821 535.819092
v -221.761780 -0.379820 518.093262
v -212.632660 -0.379820 525.344666
v -95.517738 -0.379816 350.905243
v -86.388611 -0.379816 358.156586
v -88.360237 -0.379816 342.682892
v -80.580505 -0.379816 351.366150
v -75.034935 -0.379816 332.058746
v -70.704201 -0.379816 342.883118
v -63.995682 -0.379816 327.367432
v -61.271442 -0.379816 338.703247
v -50.121552 -0.379815 324.139709
v -50.579166 -0.379815 335.789337
v -35.791145 -0.379815 324.139740
v -36.248760 -0.379815 335.789368
v -28.640572 -0.379815 325.291748
v -31.116129 -0.379815 336.684540
v -20.203960 -0.379815 328.456085
v -25.222338 -0.379815 338.979340
v -10.318329 -0.379815 333.168304
v -17.365559 -0.379815 342.455902
v -0.787258 -0.379815 339.553040
v -9.154224 -0.379815 347.671967
v 7.056556 -0.379814 347.562012
v -2.667631 -0.379814 353.993439
v 14.201616 -0.379814 358.470612
v 3.152916 -0.379814 362.192047
v 16.881758 -0.379814 371.198730
v 5.249574 -0.379814 371.983093
v 17.807316 -0.379815 391.611877
v 6.371221 -0.379815 393.878754
v 19.101362 -0.379815 408.360016
v 7.806772 -0.379815 411.250580
v 22.932030 -0.379815 425.653259
v 12.164905 -0.379815 430.124542
v 28.938459 -0.379815 438.595428
v 19.806471 -0.379815 445.843201
v 37.120621 -0.379815 447.579315
v 30.731520 -0.379815 457.331390
v 44.479240 -0.379815 452.788788
v 40.432907 -0.379815 463.722717
v 55.005756 -0.379814 456.211395
v 53.790405 -0.379814 467.806488
v 65.648674 -0.379814 457.544464
v 65.666702 -0.379814 469.203094
v 74.865952 -0.379814 456.270966
v 76.921440 -0.379814 467.747009
v 84.859917 -0.379814 453.335876
v 88.081886 -0.379814 464.540497
v 94.315781 -0.379814 449.694427
v 99.780434 -0.379814 459.993073
v 103.183769 -0.379813 442.511475
v 111.384445 -0.379813 450.798401
v 112.648338 -0.379813 432.194244
v 122.391891 -0.379813 438.596466
v 117.287018 -0.379813 425.688812
v 127.420555 -0.379813 431.453888
v 202.436218 -0.379815 257.234863
v 211.165466 -0.379815 264.963074
v 209.562225 -0.379815 246.819580
v 217.960388 -0.379815 254.906372
v 223.073761 -0.379815 232.079742
v 231.471924 -0.379815 240.166504
v 256.268402 -0.379815 200.381927
v 262.149963 -0.379815 210.448303
v 281.743042 -0.379814 181.526794
v 285.808105 -0.379814 192.453827
v 305.393433 -0.379814 169.027039
v 308.015045 -0.379814 180.387146
v 331.051270 -0.379814 159.144409
v 333.127808 -0.379814 170.616669
v 358.731964 -0.379814 153.740906
v 359.493195 -0.379814 165.374725
v 387.603180 -0.379814 151.356354
v 389.581360 -0.379814 162.845978
v 404.361115 -0.379813 149.402130
v 407.216400 -0.379813 160.705811
v 426.417328 -0.379813 142.169800
v 430.198639 -0.379813 153.198303
v 443.488708 -0.379813 133.724487
v 450.795715 -0.379813 142.809326
v 459.664032 -0.379813 118.406631
v 469.013367 -0.379813 125.372009
v 468.854919 -0.379813 98.245102
v 480.294495 -0.379813 100.495125
v 472.022827 -0.379813 86.419540
v 483.677643 -0.379813 86.116516
v 472.455811 -0.379813 57.360035
v 483.244598 -0.379813 52.941135
v 466.222229 -0.379813 40.818707
v 476.376129 -0.379813 35.089497
v 453.348572 -0.379813 21.260448
v 462.226746 -0.379813 13.703749
v 438.577271 -0.379813 7.586798
v 445.061707 -0.379813 -2.102293
v 418.576538 -0.379813 -2.410374
v 422.480621 -0.379813 -13.396015
v 398.930573 -0.379813 -5.371850
v 397.907104 -0.379813 -16.985573
v 228.330475 -0.379813 0.946685
v 227.307037 -0.379813 -10.667038
vn 0.0000 1.0000 0.0000
vn 0.0000 0.0000 1.0000
s off
f 2//1 3//1 1//1
f 1//2 6//2 5//2
f 5//1 8//1 7//1
f 7//1 10//1 9//1
f 9//1 12//1 11//1
f 12//1 13//1 11//1
f 14//1 15//1 13//1
f 16//1 17//1 15//1
f 18//1 19//1 17//1
f 20//1 21//1 19//1
f 22//1 23//1 21//1
f 23//1 26//1 25//1
f 25//1 28//1 27//1
f 28//1 29//1 27//1
f 29//1 32//1 31//1
f 32//1 33//1 31//1
f 34//1 35//1 33//1
f 36//1 37//1 35//1
f 38//1 39//1 37//1
f 40//1 41//1 39//1
f 42//1 43//1 41//1
f 44//1 45//1 43//1
f 46//1 47//1 45//1
f 48//1 49//1 47//1
f 50//1 51//1 49//1
f 52//1 53//1 51//1
f 54//1 55//1 53//1
f 56//1 57//1 55//1
f 57//1 60//1 59//1
f 59//1 62//1 61//1
f 62//1 63//1 61//1
f 64//1 65//1 63//1
f 66//1 67//1 65//1
f 68//1 69//1 67//1
f 70//1 71//1 69//1
f 71//1 74//1 73//1
f 73//1 76//1 75//1
f 75//1 78//1 77//1
f 77//1 80//1 79//1
f 79//1 82//1 81//1
f 81//1 84//1 83//1
f 84//1 85//1 83//1
f 86//1 87//1 85//1
f 87//1 90//1 89//1
f 89//1 92//1 91//1
f 91//1 94//1 93//1
f 93//1 96//1 95//1
f 95//1 98//1 97//1
f 98//1 99//1 97//1
f 100//1 101//1 99//1
f 102//1 103//1 101//1
f 104//1 105//1 103//1
f 106//1 107//1 105//1
f 108//1 109//1 107//1
f 110//1 111//1 109//1
f 112//1 113//1 111//1
f 113//1 116//1 115//1
f 115//1 118//1 117//1
f 118//1 119//1 117//1
f 119//1 122//1 121//1
f 122//1 123//1 121//1
f 124//1 125//1 123//1
f 125//1 128//1 127//1
f 127//1 130//1 129//1
f 129//1 132//1 131//1
f 131//1 134//1 133//1
f 133//1 136//1 135//1
f 135//1 138//1 137//1
f 137//1 140//1 139//1
f 139//1 142//1 141//1
f 142//1 143//1 141//1
f 144//1 145//1 143//1
f 145//1 148//1 147//1
f 148//1 149//1 147//1
f 150//1 151//1 149//1
f 152//1 153//1 151//1
f 154//1 155//1 153//1
f 156//1 157//1 155//1
f 158//1 159//1 157//1
f 160//1 161//1 159//1
f 162//1 163//1 161//1
f 163//1 166//1 165//1
f 166//1 167//1 165//1
f 168//1 169//1 167//1
f 2//1 4//1 3//1
f 1//2 3//2 6//2
f 5//1 6//1 8//1
f 7//1 8//1 10//1
f 9//1 10//1 12//1
f 12//1 14//1 13//1
f 14//1 16//1 15//1
f 16//1 18//1 17//1
f 18//1 20//1 19//1
f 20//1 22//1 21//1
f 22//1 24//1 23//1
f 23//1 24//1 26//1
f 25//1 26//1 28//1
f 28//1 30//1 29//1
f 29//1 30//1 32//1
f 32//1 34//1 33//1
f 34//1 36//1 35//1
f 36//1 38//1 37//1
f 38//1 40//1 39//1
f 40//1 42//1 41//1
f 42//1 44//1 43//1
f 44//1 46//1 45//1
f 46//1 48//1 47//1
f 48//1 50//1 49//1
f 50//1 52//1 51//1
f 52//1 54//1 53//1
f 54//1 56//1 55//1
f 56//1 58//1 57//1
f 57//1 58//1 60//1
f 59//1 60//1 62//1
f 62//1 64//1 63//1
f 64//1 66//1 65//1
f 66//1 68//1 67//1
f 68//1 70//1 69//1
f 70//1 72//1 71//1
f 71//1 72//1 74//1
f 73//1 74//1 76//1
f 75//1 76//1 78//1
f 77//1 78//1 80//1
f 79//1 80//1 82//1
f 81//1 82//1 84//1
f 84//1 86//1 85//1
f 86//1 88//1 87//1
f 87//1 88//1 90//1
f 89//1 90//1 92//1
f 91//1 92//1 94//1
f 93//1 94//1 96//1
f 95//1 96//1 98//1
f 98//1 100//1 99//1
f 100//1 102//1 101//1
f 102//1 104//1 103//1
f 104//1 106//1 105//1
f 106//1 108//1 107//1
f 108//1 110//1 109//1
f 110//1 112//1 111//1
f 112//1 114//1 113//1
f 113//1 114//1 116//1
f 115//1 116//1 118//1
f 118//1 120//1 119//1
f 119//1 120//1 122//1
f 122//1 124//1 123//1
f 124//1 126//1 125//1
f 125//1 126//1 128//1
f 127//1 128//1 130//1
f 129//1 130//1 132//1
f 131//1 132//1 134//1
f 133//1 134//1 136//1
f 135//1 136//1 138//1
f 137//1 138//1 140//1
f 139//1 140//1 142//1
f 142//1 144//1 143//1
f 144//1 146//1 145//1
f 145//1 146//1 148//1
f 148//1 150//1 149//1
f 150//1 152//1 151//1
f 152//1 154//1 153//1
f 154//1 156//1 155//1
f 156//1 158//1 157//1
f 158//1 160//1 159//1
f 160//1 162//1 161//1
f 162//1 164//1 163//1
f 163//1 164//1 166//1
f 166//1 168//1 167//1
f 168//1 170//1 169//1
